<svg width="21" height="21" viewBox="0 0 21 21" fill="none" xmlns="http://www.w3.org/2000/svg">
    <path d="M10.2674 20.8359C7.58793 20.8359 5.01787 19.7714 3.12328 17.8767C1.22858 15.9819 0.164062 13.4121 0.164062 10.7326C0.164062 8.05307 1.22858 5.483 3.12328 3.58842C5.01814 1.69371 7.58793 0.629195 10.2674 0.629195C12.9469 0.629195 15.517 1.69371 17.4116 3.58842C19.3063 5.48327 20.3708 8.05307 20.3708 10.7326C20.3676 13.4112 19.3022 15.9794 17.408 17.8732C15.514 19.7672 12.9458 20.8327 10.2674 20.8359V20.8359ZM14.1637 8.134V8.13385C14.3408 7.9627 14.4418 7.72761 14.444 7.48127C14.4461 7.23494 14.3493 6.998 14.1751 6.82378C14.0008 6.64955 13.7639 6.55269 13.5176 6.55484C13.2712 6.557 13.0361 6.65802 12.865 6.83516L10.2674 9.43364L7.66989 6.83516C7.43663 6.60989 7.10187 6.52425 6.78897 6.61004C6.47621 6.69584 6.23189 6.94018 6.14608 7.25293C6.06028 7.56585 6.14592 7.90059 6.37119 8.13386L8.96874 10.7323L6.37119 13.3308C6.19405 13.502 6.09303 13.7371 6.09088 13.9834C6.08873 14.2297 6.1856 14.4667 6.35981 14.6409C6.53403 14.8151 6.77097 14.912 7.01731 14.9098C7.26364 14.9077 7.49873 14.8067 7.66988 14.6295L10.2674 12.031L12.865 14.6295C13.0361 14.8067 13.2712 14.9077 13.5175 14.9098C13.7639 14.912 14.0008 14.8151 14.175 14.6409C14.3493 14.4667 14.4461 14.2297 14.444 13.9834C14.4418 13.7371 14.3408 13.502 14.1637 13.3308L11.5661 10.7323L14.1637 8.134Z" fill="#C94444"/>
</svg>
