<svg width="88" height="77" viewBox="0 0 88 77" fill="none" xmlns="http://www.w3.org/2000/svg">
    <path d="M45.059 18.102C44.8832 18.6913 45.2189 19.3106 45.8078 19.4863L45.9246 19.5211L45.9297 19.5153C46.4821 19.6152 47.0299 19.2844 47.1922 18.7365C48.6713 13.7669 53.3308 10.2952 58.5222 10.2952C59.1369 10.2952 59.6353 9.79669 59.6353 9.18209C59.6353 8.56747 59.1368 8.06901 58.5222 8.06901C52.142 8.06901 46.7805 12.317 45.059 18.102ZM45.059 18.102L45.2404 18.1561M45.059 18.102C45.0589 18.102 45.0589 18.1021 45.0589 18.1021L45.2404 18.1561M45.2404 18.1561C45.0946 18.645 45.373 19.159 45.8619 19.3048L45.2404 18.1561Z" fill="#029ED7" stroke="#F9FFF9" stroke-width="0.378713"/>
    <path d="M71.4537 54.4446H65.9114C65.4014 54.4446 64.9877 54.0309 64.9877 53.5209C64.9877 53.0108 65.4014 52.5971 65.9114 52.5971H71.4537C79.0934 52.5971 85.3095 46.3811 85.3095 38.7414C85.3095 31.1016 79.0934 24.8856 71.4537 24.8856H71.3204C71.0525 24.8856 70.7978 24.7695 70.6223 24.5669C70.4468 24.3643 70.3677 24.0958 70.4059 23.8306C70.4884 23.2552 70.53 22.6772 70.53 22.1144C70.53 15.4934 65.1426 10.106 58.5215 10.106C55.9457 10.106 53.4892 10.911 51.4174 12.4344C50.9621 12.769 50.3155 12.6205 50.0523 12.1197C44.1847 0.946701 28.8593 -0.553719 20.9138 9.16582C17.5667 13.2605 16.2515 18.5871 17.3054 23.7785C17.4215 24.3518 16.9827 24.8863 16.4001 24.8863H16.03C8.39021 24.8863 2.17419 31.1023 2.17419 38.7421C2.17419 46.3818 8.39021 52.5978 16.03 52.5978H21.5722C22.0822 52.5978 22.4959 53.0115 22.4959 53.5216C22.4959 54.0316 22.0823 54.4453 21.5722 54.4453H16.03C7.37135 54.4453 0.32666 47.4006 0.32666 38.742C0.32666 30.3263 6.98134 23.4353 15.3048 23.0552C14.523 17.6692 16.0181 12.2364 19.4833 7.99666C27.9901 -2.41033 44.2927 -1.24385 51.1842 10.3607C53.3827 8.98238 55.8984 8.25931 58.5212 8.25931C66.5431 8.25931 72.8996 15.087 72.3434 23.0639C80.5902 23.5264 87.1566 30.381 87.1566 38.7413C87.1566 47.4006 80.1119 54.4446 71.4533 54.4446L71.4537 54.4446Z" fill="#029ED7"/>
    <path d="M20.3355 52.9993C20.3355 65.8376 30.78 76.2819 43.6182 76.2819C56.4565 76.2819 66.9008 65.8374 66.9008 52.9993C66.9008 40.161 56.4565 29.7166 43.6182 29.7166C30.7799 29.7166 20.3355 40.1611 20.3355 52.9993ZM22.5621 52.9993C22.5621 41.3893 32.008 31.9432 43.6182 31.9432C55.2281 31.9432 64.6742 41.3891 64.6742 52.9993C64.6742 64.6092 55.2281 74.0553 43.6182 74.0553C32.0082 74.0553 22.5621 64.6094 22.5621 52.9993Z" fill="#029ED7" stroke="#F9FFF9" stroke-width="0.378713"/>
    <path d="M44.0405 62.9719C43.6671 62.9719 43.3643 62.669 43.3643 62.2956V44.7125C43.3643 44.3391 43.6671 44.0363 44.0405 44.0363C44.4139 44.0363 44.7168 44.3391 44.7168 44.7125V62.2956C44.7168 62.6695 44.4139 62.9719 44.0405 62.9719Z" fill="#029ED7"/>
    <path d="M49.4502 50.8006C49.2773 50.8006 49.1039 50.7344 48.972 50.6025L44.0401 45.6706L39.1082 50.6025C38.8445 50.8668 38.416 50.8668 38.1518 50.6025C37.8876 50.3383 37.8876 49.9103 38.1518 49.6461L43.5619 44.236C43.8256 43.9718 44.2541 43.9718 44.5183 44.236L49.9284 49.6461C50.1926 49.9103 50.1926 50.3383 49.9284 50.6025C49.7965 50.7349 49.6231 50.8006 49.4502 50.8006H49.4502Z" fill="#029ED7"/>
</svg>

